<svg xmlns="http://www.w3.org/2000/svg" viewBox="0 0 1024 1024">
  <defs>
    <linearGradient id="hookGrad" x1="50%" y1="10%" x2="35%" y2="90%">
      <stop offset="0%" stop-color="#FF2FA8"/>
      <stop offset="55%" stop-color="#C62CFF"/>
      <stop offset="100%" stop-color="#4E19F5"/>
    </linearGradient>
    <filter id="shadow" x="-20%" y="-20%" width="140%" height="140%">
      <feDropShadow dx="0" dy="8" stdDeviation="12" flood-opacity="0.08"/>
    </filter>
  </defs>

  <rect x="10" y="10" width="1004" height="1004" rx="120"
        fill="#ffffff" stroke="#ececec" stroke-width="4" filter="url(#shadow)"/>

  <!-- Hook body -->
  <path fill="url(#hookGrad)"
        d="
        M598 118
        C654 118 700 164 700 220
        L700 410
        C700 452 716 485 744 530
        C774 578 784 620 784 670
        C784 782 702 892 560 892
        C374 892 252 764 252 582
        C252 420 344 296 500 206
        C520 194 544 202 552 224
        C560 244 550 266 528 280
        C416 350 344 450 344 580
        C344 706 426 796 552 796
        C654 796 716 726 716 648
        C716 610 706 580 682 544
        C648 492 628 446 628 392
        L628 220
        C628 204 614 190 598 190
        C582 190 568 204 568 220
        L568 392
        C568 474 506 530 430 530
        C374 530 332 488 332 432
        C332 400 346 372 372 352
        L408 412
        C402 418 400 424 400 432
        C400 450 412 462 430 462
        C468 462 500 432 500 392
        L500 220
        C500 164 544 118 598 118 Z"/>

  <!-- Eye -->
  <circle cx="598" cy="190" r="38" fill="#fff"/>

  <!-- Separation highlight -->
  <path d="M610 648 L656 694 L628 722 L582 676 Z"
        fill="#FFD3F0"/>

  <!-- Music note -->
  <g fill="#4E19F5">
    <path d="M656 694 L722 914
             C726 930 716 944 700 944
             L666 944
             C650 944 638 932 638 916
             L638 718 Z"/>
    <circle cx="636" cy="850" r="72"/>
  </g>
</svg>
